<svg width="20" height="20" viewBox="0 0 20 20" fill="none" xmlns="http://www.w3.org/2000/svg">
<mask id="mask0_2188_4373" style="mask-type:alpha" maskUnits="userSpaceOnUse" x="0" y="0" width="20" height="20">
<rect width="20" height="20" fill="currentColor"/>
</mask>
<g mask="url(#mask0_2188_4373)">
<path d="M15.4999 7.97917L14.3958 5.58333L11.9999 4.5L14.3958 3.39583L15.4999 1L16.5833 3.39583L18.9791 4.5L16.5833 5.58333L15.4999 7.97917ZM15.4999 18.9792L14.4166 16.5625L11.9999 15.4792L14.4166 14.3958L15.4999 11.9792L16.5833 14.3958L18.9999 15.4792L16.5833 16.5625L15.4999 18.9792ZM7.49994 16.4792L5.47911 12L0.999939 9.97917L5.47911 7.95833L7.49994 3.47917L9.52077 7.95833L13.9999 9.97917L9.52077 12L7.49994 16.4792ZM7.49994 12.8542L8.39577 10.875L10.3749 9.97917L8.39577 9.08333L7.49994 7.10417L6.60411 9.08333L4.62494 9.97917L6.60411 10.875L7.49994 12.8542Z" fill="currentColor"/>
</g>
</svg>
