<svg width="20" height="20" viewBox="0 0 20 20" fill="none" xmlns="http://www.w3.org/2000/svg">
<mask id="mask0_2188_4403" style="mask-type:alpha" maskUnits="userSpaceOnUse" x="0" y="0" width="20" height="20">
<rect width="20" height="20" fill="#D9D9D9"/>
</mask>
<g mask="url(#mask0_2188_4403)">
<path d="M8.93744 12.5417C9.25688 12.8472 9.65272 12.9896 10.1249 12.9688C10.5972 12.9479 10.9444 12.7708 11.1666 12.4375L15.4999 6L9.05917 10.3388C8.71413 10.5713 8.52772 10.9201 8.49994 11.3854C8.47216 11.8507 8.61799 12.2361 8.93744 12.5417ZM10.0208 4C10.8541 4 11.6041 4.10764 12.2708 4.32292C12.9374 4.53819 13.5416 4.80556 14.0833 5.125L12.6458 6.0625C12.2569 5.88194 11.8506 5.74306 11.427 5.64583C11.0034 5.54861 10.5347 5.5 10.0208 5.5C8.21395 5.5 6.67545 6.14931 5.40525 7.44792C4.13504 8.74653 3.49994 10.2639 3.49994 12C3.49994 12.5278 3.53813 12.9618 3.61452 13.3021C3.69091 13.6424 3.81244 14.0417 3.97911 14.5H15.9999C16.1805 14.0417 16.309 13.6215 16.3854 13.2396C16.4617 12.8576 16.4999 12.4444 16.4999 12C16.4999 11.4167 16.4201 10.8333 16.2604 10.25C16.1006 9.66667 15.868 9.13194 15.5624 8.64583L16.4583 7.29167C16.9444 7.95833 17.3229 8.69444 17.5937 9.5C17.8645 10.3056 17.9999 11.125 17.9999 11.9583C17.9999 12.6667 17.9409 13.2847 17.8229 13.8125C17.7048 14.3403 17.5138 14.8264 17.2499 15.2708C17.111 15.5069 16.934 15.6875 16.7187 15.8125C16.5034 15.9375 16.2638 16 15.9999 16H3.99994C3.73605 16 3.49647 15.9375 3.28119 15.8125C3.06591 15.6875 2.88883 15.5069 2.74994 15.2708C2.48605 14.8264 2.29508 14.3403 2.17702 13.8125C2.05897 13.2847 1.99994 12.6667 1.99994 11.9583C1.99994 10.8511 2.21174 9.81382 2.63536 8.84663C3.05897 7.87943 3.63188 7.03819 4.35411 6.32292C5.07633 5.60764 5.9266 5.04167 6.90492 4.625C7.88322 4.20833 8.92184 4 10.0208 4Z" fill="white"/>
</g>
</svg>
