<svg width="20" height="20" viewBox="0 0 20 20" fill="none" xmlns="http://www.w3.org/2000/svg">
<mask id="mask0_2188_4457" style="mask-type:alpha" maskUnits="userSpaceOnUse" x="0" y="0" width="20" height="20">
<rect width="20" height="20" fill="#D9D9D9"/>
</mask>
<g mask="url(#mask0_2188_4457)">
<path d="M4.25 15.7499H5.47917L12.4792 8.74992L11.25 7.52075L4.25 14.5208V15.7499ZM16.1875 7.54159L12.4583 3.81242L13.4792 2.79159C13.8264 2.44436 14.2396 2.27075 14.7188 2.27075C15.1979 2.27075 15.6111 2.44436 15.9583 2.79159L17.2083 4.04159C17.5417 4.37492 17.7083 4.78811 17.7083 5.28117C17.7083 5.77422 17.5417 6.18742 17.2083 6.52075L16.1875 7.54159ZM14.9583 8.77075L6.22917 17.4999H2.5V13.7708L11.2292 5.04159L14.9583 8.77075Z" fill="#33C173"/>
</g>
</svg>
