<svg width="81" height="80" viewBox="0 0 81 80" fill="none" xmlns="http://www.w3.org/2000/svg">
<circle cx="40.5" cy="40" r="40" fill="#C4C4C4"/>
<mask id="mask0_2188_4441" style="mask-type:alpha" maskUnits="userSpaceOnUse" x="20" y="20" width="41" height="40">
<rect x="20.5" y="20" width="40" height="40" fill="#D9D9D9"/>
</mask>
<g mask="url(#mask0_2188_4441)">
<path d="M40.5 40C38.8333 40 37.4167 39.4167 36.25 38.25C35.0833 37.0833 34.5 35.6667 34.5 34C34.5 32.3333 35.0833 30.9167 36.25 29.75C37.4167 28.5833 38.8333 28 40.5 28C42.1667 28 43.5833 28.5833 44.75 29.75C45.9167 30.9167 46.5 32.3333 46.5 34C46.5 35.6667 45.9167 37.0833 44.75 38.25C43.5833 39.4167 42.1667 40 40.5 40ZM28.5 52V48C28.5 47.3613 28.6733 46.7573 29.02 46.188C29.368 45.6187 29.8473 45.1393 30.458 44.75C31.986 43.8607 33.604 43.18 35.312 42.708C37.0213 42.236 38.7507 42 40.5 42C42.2493 42 43.9787 42.236 45.688 42.708C47.396 43.18 49.014 43.8607 50.542 44.75C51.1527 45.1113 51.632 45.5833 51.98 46.166C52.3267 46.75 52.5 47.3613 52.5 48V52H28.5ZM31.5 49H49.5V48C49.5 47.8613 49.4587 47.7293 49.376 47.604C49.292 47.4787 49.1807 47.3887 49.042 47.334C47.7633 46.5553 46.402 45.972 44.958 45.584C43.514 45.1947 42.028 45 40.5 45C38.972 45 37.486 45.1947 36.042 45.584C34.598 45.972 33.2367 46.5553 31.958 47.334C31.8193 47.4447 31.708 47.5487 31.624 47.646C31.5413 47.7433 31.5 47.8613 31.5 48V49ZM40.5 37C41.3333 37 42.0413 36.708 42.624 36.124C43.208 35.5413 43.5 34.8333 43.5 34C43.5 33.1667 43.208 32.4587 42.624 31.876C42.0413 31.292 41.3333 31 40.5 31C39.6667 31 38.9587 31.292 38.376 31.876C37.792 32.4587 37.5 33.1667 37.5 34C37.5 34.8333 37.792 35.5413 38.376 36.124C38.9587 36.708 39.6667 37 40.5 37Z" fill="white"/>
</g>
</svg>
