<svg width="20" height="20" viewBox="0 0 20 20" fill="none" xmlns="http://www.w3.org/2000/svg">
<mask id="mask0_2188_4378" style="mask-type:alpha" maskUnits="userSpaceOnUse" x="0" y="0" width="20" height="20">
<rect width="20" height="20" fill="#D9D9D9"/>
</mask>
<g mask="url(#mask0_2188_4378)">
<path d="M1 14.5V13.312C1 12.7707 1.27067 12.3333 1.812 12C2.354 11.6667 3.08333 11.5 4 11.5C4.18067 11.5 4.35433 11.507 4.521 11.521C4.68767 11.535 4.85433 11.5557 5.021 11.583C4.85433 11.833 4.72567 12.104 4.635 12.396C4.545 12.6873 4.5 12.986 4.5 13.292V14.5H1ZM5.5 14.5V13.292C5.5 12.5 5.90267 11.8783 6.708 11.427C7.514 10.9757 8.61133 10.75 10 10.75C11.4027 10.75 12.5033 10.9757 13.302 11.427C14.1007 11.8783 14.5 12.5 14.5 13.292V14.5H5.5ZM15.5 14.5V13.292C15.5 12.972 15.455 12.6697 15.365 12.385C15.2743 12.1003 15.1457 11.833 14.979 11.583C15.1183 11.5557 15.2677 11.535 15.427 11.521C15.587 11.507 15.778 11.5 16 11.5C16.9167 11.5 17.646 11.6667 18.188 12C18.7293 12.3333 19 12.7707 19 13.312V14.5H15.5ZM10 12.25C9.222 12.25 8.60033 12.3193 8.135 12.458C7.67033 12.5973 7.31967 12.778 7.083 13H12.896C12.66 12.764 12.3127 12.58 11.854 12.448C11.396 12.316 10.778 12.25 10 12.25ZM4 10.5C3.58333 10.5 3.22933 10.354 2.938 10.062C2.646 9.77067 2.5 9.41667 2.5 9C2.5 8.58333 2.646 8.22933 2.938 7.938C3.22933 7.646 3.58333 7.5 4 7.5C4.41667 7.5 4.77067 7.646 5.062 7.938C5.354 8.22933 5.5 8.58333 5.5 9C5.5 9.41667 5.354 9.77067 5.062 10.062C4.77067 10.354 4.41667 10.5 4 10.5ZM16 10.5C15.5833 10.5 15.2293 10.354 14.938 10.062C14.646 9.77067 14.5 9.41667 14.5 9C14.5 8.58333 14.646 8.22933 14.938 7.938C15.2293 7.646 15.5833 7.5 16 7.5C16.4167 7.5 16.7707 7.646 17.062 7.938C17.354 8.22933 17.5 8.58333 17.5 9C17.5 9.41667 17.354 9.77067 17.062 10.062C16.7707 10.354 16.4167 10.5 16 10.5ZM10 9.75C9.37467 9.75 8.84333 9.53133 8.406 9.094C7.96867 8.65667 7.75 8.12533 7.75 7.5C7.75 6.87467 7.96867 6.34333 8.406 5.906C8.84333 5.46867 9.37467 5.25 10 5.25C10.6253 5.25 11.1567 5.46867 11.594 5.906C12.0313 6.34333 12.25 6.87467 12.25 7.5C12.25 8.12533 12.0313 8.65667 11.594 9.094C11.1567 9.53133 10.6253 9.75 10 9.75ZM10 6.75C9.792 6.75 9.615 6.823 9.469 6.969C9.323 7.115 9.25 7.292 9.25 7.5C9.25 7.708 9.323 7.885 9.469 8.031C9.615 8.177 9.792 8.25 10 8.25C10.208 8.25 10.385 8.177 10.531 8.031C10.677 7.885 10.75 7.708 10.75 7.5C10.75 7.292 10.677 7.115 10.531 6.969C10.385 6.823 10.208 6.75 10 6.75Z" fill="white"/>
</g>
</svg>
