<svg width="20" height="20" viewBox="0 0 20 20" fill="none" xmlns="http://www.w3.org/2000/svg">
<mask id="mask0_2188_4393" style="mask-type:alpha" maskUnits="userSpaceOnUse" x="0" y="0" width="20" height="20">
<rect width="20" height="20" fill="currentColor"/>
</mask>
<g mask="url(#mask0_2188_4393)">
<path d="M7.64586 18.3333L7.33336 15.7083C7.19448 15.625 7.0417 15.5347 6.87503 15.4375C6.70836 15.3402 6.55559 15.25 6.4167 15.1666L3.9792 16.1875L1.62503 12.125L3.70836 10.5416V9.45829L1.62503 7.87496L3.9792 3.81246L6.4167 4.83329C6.55559 4.74996 6.70836 4.65968 6.87503 4.56246C7.0417 4.46524 7.19448 4.37496 7.33336 4.29163L7.64586 1.66663H12.3542L12.6667 4.29163C12.8056 4.37496 12.9584 4.46524 13.125 4.56246C13.2917 4.65968 13.4445 4.74996 13.5834 4.83329L16.0209 3.81246L18.375 7.87496L16.3125 9.45829V10.5416L18.375 12.125L16.0209 16.1875L13.5834 15.1666C13.4445 15.25 13.2917 15.3402 13.125 15.4375C12.9584 15.5347 12.8056 15.625 12.6667 15.7083L12.3542 18.3333H7.64586ZM10 12.9791C10.8195 12.9791 11.5209 12.6875 12.1042 12.1041C12.6875 11.5208 12.9792 10.8194 12.9792 9.99996C12.9792 9.18052 12.6875 8.47913 12.1042 7.89579C11.5209 7.31246 10.8195 7.02079 10 7.02079C9.18059 7.02079 8.4792 7.31246 7.89586 7.89579C7.31253 8.47913 7.02086 9.18052 7.02086 9.99996C7.02086 10.8194 7.31253 11.5208 7.89586 12.1041C8.4792 12.6875 9.18059 12.9791 10 12.9791ZM10 11.2291C9.6667 11.2291 9.3785 11.1076 9.13545 10.8645C8.89239 10.6215 8.77086 10.3333 8.77086 9.99996C8.77086 9.66663 8.89239 9.37843 9.13545 9.13538C9.3785 8.89232 9.6667 8.77079 10 8.77079C10.3334 8.77079 10.6216 8.89232 10.8646 9.13538C11.1077 9.37843 11.2292 9.66663 11.2292 9.99996C11.2292 10.3333 11.1077 10.6215 10.8646 10.8645C10.6216 11.1076 10.3334 11.2291 10 11.2291ZM9.1667 16.5833H10.8334L11.0834 14.4166C11.4861 14.3055 11.875 14.1389 12.25 13.9166C12.625 13.6944 12.9653 13.4305 13.2709 13.125L15.2917 13.9791L16.125 12.6041L14.3542 11.25C14.4236 11.0555 14.4723 10.8541 14.5 10.6458C14.5278 10.4375 14.5417 10.2222 14.5417 9.99996C14.5417 9.80552 14.5278 9.6076 14.5 9.40621C14.4723 9.20482 14.4306 8.99302 14.375 8.77079L16.1459 7.39579L15.3125 6.02079L13.2917 6.89579C12.9723 6.57635 12.6285 6.30899 12.2604 6.09371C11.8924 5.87843 11.507 5.71524 11.1042 5.60413L10.8334 3.41663H9.1667L8.89586 5.60413C8.49309 5.71524 8.10767 5.87843 7.73961 6.09371C7.37156 6.30899 7.03475 6.5694 6.7292 6.87496L4.70836 6.02079L3.87503 7.39579L5.62503 8.74996C5.56947 8.97218 5.52781 9.18746 5.50003 9.39579C5.47225 9.60413 5.45836 9.80552 5.45836 9.99996C5.45836 10.1944 5.47225 10.3923 5.50003 10.5937C5.52781 10.7951 5.56947 11.0069 5.62503 11.2291L3.87503 12.6041L4.70836 13.9791L6.7292 13.125C7.03475 13.4305 7.37156 13.6909 7.73961 13.9062C8.10767 14.1215 8.49309 14.2847 8.89586 14.3958L9.1667 16.5833Z" fill="currentColor"/>
</g>
</svg>
