<svg width="48" height="48" viewBox="0 0 48 48" fill="none" xmlns="http://www.w3.org/2000/svg">
<g clip-path="url(#clip0_2188_4530)">
<path d="M25.1419 41.6603H22.8819C22.7619 41.6407 22.6619 41.6211 22.5419 41.6015C21.7819 41.5036 21.0219 41.4253 20.2819 41.2686C15.9619 40.3482 12.4219 38.194 9.74191 34.7474C6.38191 30.4586 5.26191 25.6019 6.38191 20.3144C7.36191 15.6732 9.94191 12.0307 13.9219 9.36737C17.8619 6.7432 22.2419 5.82278 26.9619 6.56695C30.3619 7.0957 33.3819 8.52528 35.9419 10.7774C39.0619 13.519 41.0219 16.9069 41.7619 20.9411C41.8819 21.5874 41.9419 22.2336 42.0419 22.8799V25.0928C42.0419 25.0928 41.9819 25.269 41.9819 25.3669C41.7819 28.0694 40.9819 30.5957 39.5619 32.9065C36.7019 37.5282 32.5619 40.3678 27.1219 41.3861C26.4619 41.5036 25.8019 41.5624 25.1419 41.6603ZM25.5019 22.5274C25.5019 22.3315 25.5019 22.1944 25.5019 22.0574C25.5019 20.1578 25.5019 18.2582 25.5019 16.3586C25.5019 15.8886 25.3619 15.4774 25.0019 15.164C24.5419 14.7724 23.9819 14.6744 23.4219 14.9094C22.8219 15.164 22.5019 15.6145 22.5019 16.2607C22.5019 18.1994 22.5019 20.1382 22.5019 22.0965C22.5019 22.2336 22.5019 22.3707 22.5019 22.5274C22.3219 22.5274 22.1819 22.5274 22.0419 22.5274C20.1019 22.5274 18.1419 22.5274 16.2019 22.5274C15.5219 22.5274 15.0219 22.8015 14.7419 23.4086C14.3019 24.3878 15.0219 25.4453 16.1419 25.4453C18.1219 25.4453 20.0819 25.4453 22.0619 25.4453C22.2019 25.4453 22.3419 25.4453 22.5219 25.4453C22.5219 25.6215 22.5219 25.7586 22.5219 25.8957C22.5219 27.7953 22.5219 29.7144 22.5219 31.614C22.5219 32.2994 22.8219 32.789 23.4619 33.0632C24.4419 33.4744 25.5219 32.7694 25.5219 31.6924C25.5219 29.7536 25.5219 27.8149 25.5219 25.8565C25.5219 25.7194 25.5219 25.6019 25.5219 25.4453C25.7219 25.4453 25.8619 25.4453 26.0019 25.4453C27.9419 25.4453 29.8819 25.4453 31.8019 25.4453C32.5019 25.4453 33.0019 25.1711 33.2819 24.5444C33.7019 23.5849 32.9819 22.5274 31.8819 22.5274C29.9019 22.5274 27.9419 22.5274 25.9619 22.5274C25.8219 22.5274 25.6819 22.5274 25.5019 22.5274Z" fill="#33C173"/>
</g>
<defs>
<clipPath id="clip0_2188_4530">
<rect width="48" height="48" fill="white"/>
</clipPath>
</defs>
</svg>
