<svg width="81" height="80" viewBox="0 0 81 80" fill="none" xmlns="http://www.w3.org/2000/svg">
<circle cx="40.5" cy="40" r="40" fill="#C4C4C4"/>
<mask id="mask0_2188_4421" style="mask-type:alpha" maskUnits="userSpaceOnUse" x="20" y="20" width="41" height="40">
<rect x="20.5" y="20" width="40" height="40" fill="#D9D9D9"/>
</mask>
<g mask="url(#mask0_2188_4421)">
<path d="M30.3749 48.125C31.8749 47.0694 33.479 46.2847 35.1874 45.7708C36.8957 45.2569 38.6665 45 40.4999 45C42.3332 45 44.104 45.2569 45.8124 45.7708C47.5207 46.2847 49.1249 47.0694 50.6249 48.125C51.5971 46.9861 52.3193 45.7222 52.7915 44.3333C53.2638 42.9444 53.4999 41.5 53.4999 40C53.4999 36.3979 52.2328 33.3307 49.6986 30.7984C47.1645 28.2661 44.095 27 40.4903 27C36.8856 27 33.8193 28.2661 31.2915 30.7984C28.7638 33.3307 27.4999 36.3979 27.4999 40C27.4999 41.5 27.736 42.9444 28.2082 44.3333C28.6804 45.7222 29.4027 46.9861 30.3749 48.125ZM40.4999 43C38.8332 43 37.4165 42.4167 36.2499 41.25C35.0832 40.0833 34.4999 38.6667 34.4999 37C34.4999 35.3333 35.0832 33.9167 36.2499 32.75C37.4165 31.5833 38.8332 31 40.4999 31C42.1665 31 43.5832 31.5833 44.7499 32.75C45.9165 33.9167 46.4999 35.3333 46.4999 37C46.4999 38.6667 45.9165 40.0833 44.7499 41.25C43.5832 42.4167 42.1665 43 40.4999 43ZM40.5114 56C38.3093 56 36.236 55.5833 34.2915 54.75C32.3471 53.9167 30.6457 52.7708 29.1874 51.3125C27.729 49.8542 26.5832 48.1534 25.7499 46.2101C24.9165 44.2668 24.4999 42.1904 24.4999 39.9809C24.4999 37.7714 24.9165 35.7014 25.7499 33.7708C26.5832 31.8403 27.729 30.1458 29.1874 28.6875C30.6457 27.2292 32.3465 26.0833 34.2898 25.25C36.2331 24.4167 38.3095 24 40.519 24C42.7285 24 44.7985 24.4167 46.729 25.25C48.6596 26.0833 50.354 27.2292 51.8124 28.6875C53.2707 30.1458 54.4165 31.8434 55.2499 33.7802C56.0832 35.717 56.4999 37.7864 56.4999 39.9885C56.4999 42.1906 56.0832 44.2639 55.2499 46.2083C54.4165 48.1528 53.2707 49.8542 51.8124 51.3125C50.354 52.7708 48.6565 53.9167 46.7197 54.75C44.7829 55.5833 42.7135 56 40.5114 56ZM40.4999 53C41.9443 53 43.3332 52.7708 44.6665 52.3125C45.9999 51.8542 47.2499 51.1806 48.4165 50.2917C47.2221 49.5417 45.9582 48.9722 44.6249 48.5833C43.2915 48.1944 41.9165 48 40.4999 48C39.0832 48 37.7013 48.1875 36.354 48.5625C35.0068 48.9375 33.7499 49.5139 32.5832 50.2917C33.7499 51.1806 34.9999 51.8542 36.3332 52.3125C37.6665 52.7708 39.0554 53 40.4999 53ZM40.4999 40C41.3332 40 42.0415 39.7083 42.6249 39.125C43.2082 38.5417 43.4999 37.8333 43.4999 37C43.4999 36.1667 43.2082 35.4583 42.6249 34.875C42.0415 34.2917 41.3332 34 40.4999 34C39.6665 34 38.9582 34.2917 38.3749 34.875C37.7915 35.4583 37.4999 36.1667 37.4999 37C37.4999 37.8333 37.7915 38.5417 38.3749 39.125C38.9582 39.7083 39.6665 40 40.4999 40Z" fill="white"/>
</g>
</svg>
