<svg width="20" height="20" viewBox="0 0 20 20" fill="none" xmlns="http://www.w3.org/2000/svg">
<g clip-path="url(#clip0_2188_4460)">
<path d="M7.94161 2.48331C9.30828 2.48331 10.6833 2.48331 12.0499 2.48331C12.2249 2.55831 12.4166 2.59998 12.5749 2.69998C12.9583 2.94998 13.1249 3.31664 13.1333 3.77498C13.1333 3.96664 13.1333 4.15831 13.1333 4.36664C13.1916 4.36664 13.2249 4.36664 13.2583 4.36664C13.9083 4.36664 14.5499 4.36664 15.1999 4.36664C16.0583 4.36664 16.8083 5.03331 16.8749 5.89164C16.9166 6.48331 16.8999 7.07498 16.8916 7.66664C16.8916 7.94164 16.6833 8.11664 16.3999 8.12498C16.1499 8.12498 15.8999 8.12498 15.6416 8.12498V8.30831C15.6416 10.775 15.6416 13.2416 15.6416 15.7083C15.6416 16.775 14.8999 17.5166 13.8333 17.5166C11.2749 17.5166 8.72494 17.5166 6.16661 17.5166C5.09994 17.5166 4.35828 16.775 4.35828 15.7083C4.35828 13.2333 4.35828 10.7666 4.35828 8.29164V8.12498C4.35828 8.12498 4.31661 8.12498 4.30828 8.12498C4.08328 8.12498 3.85828 8.12498 3.63328 8.12498C3.29994 8.12498 3.10828 7.93331 3.10828 7.59164C3.10828 7.09998 3.10828 6.59998 3.10828 6.10831C3.10828 5.11664 3.87494 4.36664 4.86661 4.35831C5.47494 4.35831 6.09161 4.35831 6.69994 4.35831C6.74994 4.35831 6.80828 4.35831 6.86661 4.35831C6.86661 4.14164 6.86661 3.94998 6.86661 3.75831C6.88328 3.24164 7.10828 2.84998 7.57494 2.60831C7.69161 2.54998 7.82494 2.51664 7.94161 2.47498V2.48331ZM8.11661 12.5166C8.11661 11.9083 8.11661 11.2916 8.11661 10.6833C8.11661 10.2833 7.85828 9.99998 7.49161 9.99998C7.12494 9.99998 6.86661 10.2833 6.86661 10.6833C6.86661 11.9 6.86661 13.1166 6.86661 14.3333C6.86661 14.725 7.14161 15.0166 7.49994 15.0083C7.85828 15.0083 8.11661 14.7166 8.11661 14.325C8.11661 13.7166 8.11661 13.1083 8.11661 12.5083V12.5166ZM11.8749 12.5083C11.8749 13.1166 11.8749 13.7333 11.8749 14.3416C11.8749 14.725 12.1333 15 12.4916 15.0083C12.8499 15.0083 13.1249 14.7333 13.1249 14.3416C13.1249 13.1166 13.1249 11.8833 13.1249 10.6583C13.1249 10.2666 12.8499 9.99164 12.4916 9.99164C12.1333 9.99164 11.8749 10.275 11.8666 10.6666C11.8666 11.275 11.8666 11.8916 11.8666 12.5L11.8749 12.5083ZM10.6249 12.5083C10.6249 11.9083 10.6249 11.3 10.6249 10.7C10.6249 10.6166 10.6249 10.5333 10.5999 10.45C10.5166 10.15 10.2333 9.96664 9.92494 9.99998C9.62494 10.0333 9.38328 10.2833 9.37494 10.5916C9.37494 11.2 9.37494 11.8083 9.37494 12.4166C9.37494 13.0666 9.37494 13.7083 9.37494 14.3583C9.37494 14.5666 9.44161 14.7416 9.60828 14.875C9.80828 15.0333 10.0249 15.0666 10.2583 14.9583C10.4916 14.85 10.6249 14.6666 10.6249 14.4C10.6249 13.7666 10.6249 13.1333 10.6249 12.5083ZM8.12494 4.34998H11.8666V3.74998H8.12494V4.34998Z" fill="#33C173"/>
</g>
<defs>
<clipPath id="clip0_2188_4460">
<rect width="20" height="20" fill="white"/>
</clipPath>
</defs>
</svg>
