<svg width="80" height="80" viewBox="0 0 80 80" fill="none" xmlns="http://www.w3.org/2000/svg">
<rect width="80" height="80" rx="40" fill="currentColor"/>
<path d="M43 54C42.7167 54 42.4792 53.8968 42.2875 53.6904C42.0958 53.484 42 53.2282 42 52.9231V46.4615C42 46.1564 42.0958 45.9006 42.2875 45.6942C42.4792 45.4878 42.7167 45.3846 43 45.3846H44V43.2308C44 42.3632 44.2946 41.6079 44.8838 40.9647C45.4731 40.3216 46.1814 40 47.0088 40C47.8363 40 48.5417 40.3216 49.125 40.9647C49.7083 41.6079 50 42.3632 50 43.2308V45.3846H51C51.2833 45.3846 51.5208 45.4878 51.7125 45.6942C51.9042 45.9006 52 46.1564 52 46.4615V52.9231C52 53.2282 51.9042 53.484 51.7125 53.6904C51.5208 53.8968 51.2833 54 51 54H43ZM45.5 45.3846H48.5V43.2308C48.5 42.7731 48.3571 42.3894 48.0713 42.0798C47.7855 41.7702 47.4313 41.6154 47.0088 41.6154C46.5863 41.6154 46.2292 41.7702 45.9375 42.0798C45.6458 42.3894 45.5 42.7731 45.5 43.2308V45.3846Z" fill="white"/>
<path d="M36.6667 41C35.1852 41 33.9259 40.3681 32.8889 39.1042C31.8519 37.8403 31.3333 36.3056 31.3333 34.5C31.3333 32.6944 31.8519 31.1597 32.8889 29.8958C33.9259 28.6319 35.1852 28 36.6667 28C38.1481 28 39.4074 28.6319 40.4444 29.8958C41.4815 31.1597 42 32.6944 42 34.5C42 36.3056 41.4815 37.8403 40.4444 39.1042C39.4074 40.3681 38.1481 41 36.6667 41ZM26 54V49.8465C26 49.0651 26.1541 48.3508 26.4622 47.7037C26.7716 47.0566 27.1976 46.5373 27.7404 46.1458C29.0987 45.1824 30.531 44.445 32.0373 43.9337C33.5437 43.4223 35.0868 43.1667 36.6667 43.1667C36.9381 43.1667 37.1911 43.1739 37.4258 43.1883C37.6604 43.2042 37.9135 43.2273 38.1849 43.2577C38.0119 43.769 37.8821 44.2955 37.7956 44.8372C37.709 45.3788 37.6415 45.9205 37.5929 46.4622L36.6667 46.4167C35.3333 46.4167 34.0249 46.6276 32.7413 47.0493C31.4566 47.4697 30.2341 48.1016 29.0738 48.9452C28.9505 49.0347 28.8516 49.1626 28.7769 49.3287C28.7034 49.4933 28.6667 49.6659 28.6667 49.8465V50.75H37.9627C38.0859 51.322 38.2465 51.8788 38.4444 52.4205C38.6424 52.9622 38.877 53.4887 39.1484 54H26ZM36.6667 37.75C37.4074 37.75 38.0367 37.4337 38.5547 36.801C39.0738 36.1698 39.3333 35.4028 39.3333 34.5C39.3333 33.5972 39.0738 32.8302 38.5547 32.199C38.0367 31.5663 37.4074 31.25 36.6667 31.25C35.9259 31.25 35.2966 31.5663 34.7787 32.199C34.2596 32.8302 34 33.5972 34 34.5C34 35.4028 34.2596 36.1698 34.7787 36.801C35.2966 37.4337 35.9259 37.75 36.6667 37.75Z" fill="white"/>
</svg>
