<svg width="54" height="54" viewBox="0 0 54 54" fill="none" xmlns="http://www.w3.org/2000/svg">
<g clip-path="url(#clip0_2188_4362)">
<path d="M20.1769 54H0.337524V0H20.1769V4.46774H4.85388V49.5351H20.1769V54Z" fill="#FCFCFC"/>
<path d="M33.8231 0H53.6625V54H33.8231V49.5351H49.149V4.46774H33.8231V0Z" fill="#FCFCFC"/>
<path d="M20.7454 17.6647C22.2651 17.6647 23.5078 17.9162 24.479 18.4107C25.4503 18.9081 26.2216 19.5382 26.7958 20.3041C27.3728 21.067 27.7842 21.9007 28.0299 22.7993C28.2755 23.698 28.4212 24.5457 28.4698 25.3455L29.2068 36.1912H24.7933V25.4557C24.7933 24.8001 24.6819 24.2434 24.4619 23.7827C24.2391 23.3193 23.9477 22.9321 23.5792 22.6185C23.2107 22.302 22.7822 22.0702 22.2909 21.9261C21.7995 21.782 21.2853 21.7057 20.7454 21.7057C20.2055 21.7057 19.6913 21.7792 19.2 21.9261C18.7086 22.0702 18.2801 22.302 17.9116 22.6185C17.5431 22.9321 17.2489 23.3193 17.0289 23.7827C16.809 24.2462 16.6975 24.8029 16.6975 25.4557V36.1912H12.284V25.3455C12.284 24.5457 12.4354 23.6951 12.7411 22.7993C13.0496 21.9007 13.5438 21.0699 14.2323 20.3041C14.9179 19.5411 15.7948 18.9081 16.8604 18.4107C17.9288 17.9162 19.2228 17.6647 20.7426 17.6647H20.7454ZM33.2547 17.6647C34.7744 17.6647 36.0685 17.9162 37.134 18.4107C38.2024 18.9081 39.0765 19.5382 39.765 20.3041C40.4506 21.067 40.9476 21.9007 41.2533 22.7993C41.5618 23.698 41.7132 24.5457 41.7132 25.3455V36.1912H37.2968V25.4557C37.2968 24.8001 37.1883 24.2434 36.9683 23.7827C36.7483 23.3221 36.4541 22.9321 36.0856 22.6185C35.7171 22.302 35.2886 22.0702 34.7973 21.9261C34.3059 21.782 33.7917 21.7057 33.2518 21.7057C32.7119 21.7057 32.1948 21.7792 31.7064 21.9261C31.215 22.0702 30.7865 22.302 30.418 22.6185C30.0495 22.9321 29.7524 23.3193 29.5353 23.7827C29.3125 24.2462 29.2039 24.8029 29.2039 25.4557V36.1912H24.7904L25.5246 25.3455C25.576 24.5457 25.7217 23.6951 25.9674 22.7993C26.213 21.9007 26.6244 21.0699 27.1986 20.3041C27.7756 19.5411 28.5498 18.9081 29.5182 18.4107C30.4866 17.9162 31.7321 17.6647 33.2518 17.6647H33.2547Z" fill="#FCFCFC"/>
</g>
<defs>
<clipPath id="clip0_2188_4362">
<rect width="53.325" height="54" fill="white" transform="translate(0.337524)"/>
</clipPath>
</defs>
</svg>
