<svg width="81" height="80" viewBox="0 0 81 80" fill="none" xmlns="http://www.w3.org/2000/svg">
<circle cx="40.5" cy="40" r="40" fill="currentColor"/>
<mask id="mask0_2188_4465" style="mask-type:alpha" maskUnits="userSpaceOnUse" x="20" y="20" width="41" height="40">
<rect x="20.5" y="20" width="40" height="40" fill="currentColor"/>
</mask>
<g mask="url(#mask0_2188_4465)">
<path d="M27.5 54C26.6667 54 25.9587 53.708 25.376 53.124C24.792 52.5413 24.5 51.8333 24.5 51V33C24.5 32.1667 24.792 31.4587 25.376 30.876C25.9587 30.292 26.6667 30 27.5 30H32.5V27C32.5 26.1667 32.792 25.4587 33.376 24.876C33.9587 24.292 34.6667 24 35.5 24H45.5C46.3333 24 47.0413 24.292 47.624 24.876C48.208 25.4587 48.5 26.1667 48.5 27V30H53.5C54.3333 30 55.0413 30.292 55.624 30.876C56.208 31.4587 56.5 32.1667 56.5 33V51C56.5 51.8333 56.208 52.5413 55.624 53.124C55.0413 53.708 54.3333 54 53.5 54H27.5ZM35.5 30H45.5V27H35.5V30ZM53.5 44.5H45.5V48H35.5V44.5H27.5V51H53.5V44.5ZM38.5 45H42.5V41H38.5V45ZM27.5 41.5H35.5V38H45.5V41.5H53.5V33H27.5V41.5Z" fill="white"/>
</g>
</svg>
